<?xml version="1.0" encoding="UTF-8" standalone="no"?>
<svg
   width="918"
   height="551.23132"
   viewBox="0 0 918 551.23132"
   fill="none"
   version="1.1"
   id="svg6"
   sodipodi:docname="logo.svg"
   inkscape:version="1.2.1 (9c6d41e, 2022-07-14)"
   xmlns:inkscape="http://www.inkscape.org/namespaces/inkscape"
   xmlns:sodipodi="http://sodipodi.sourceforge.net/DTD/sodipodi-0.dtd"
   xmlns="http://www.w3.org/2000/svg"
   xmlns:svg="http://www.w3.org/2000/svg">
  <defs
     id="defs10" />
  <sodipodi:namedview
     id="namedview8"
     pagecolor="#ffffff"
     bordercolor="#666666"
     borderopacity="1.0"
     inkscape:showpageshadow="2"
     inkscape:pageopacity="0.0"
     inkscape:pagecheckerboard="0"
     inkscape:deskcolor="#d1d1d1"
     showgrid="false"
     inkscape:zoom="0.62013265"
     inkscape:cx="33.057444"
     inkscape:cy="302.35467"
     inkscape:window-width="1920"
     inkscape:window-height="1027"
     inkscape:window-x="0"
     inkscape:window-y="25"
     inkscape:window-maximized="1"
     inkscape:current-layer="svg6" />
  <path
     d="M 449,0.18086658 C 287.5,5.3138666 239.5,120.68087 228.5,183.18087 c 14.333,-23.167 59.5,-73.999 126,-73.999 77.5,0 136.5,86.5 172.5,113.5 43.737,32.803 131.623,76.115 247,41 92,-28 134.667,-125.668 144,-172.001003 C 873.5,152.18087 806,188.51987 722.5,145.68087 665,116.18087 622,-5.3181334 449,0.18086658 Z"
     fill="#07b6d5"
     id="path2" />
  <path
     d="m 220.5,274.68087 c -161.5,5.133 -209.5,120.5 -220.5,183 14.3333,-23.167 59.5,-73.999 126,-73.999 77.5,0 136.5,86.5 172.5,113.5 43.737,32.803 131.623,76.115 247,41 92,-28 134.667,-125.668 144,-172.001 -44.5,60.5 -112,96.839 -195.5,54 -57.5,-29.5 -100.5,-150.999 -273.5,-145.5 z"
     fill="#07b6d5"
     id="path4" />
</svg>
